<svg id="Layer_1" data-name="Layer 1" xmlns="http://www.w3.org/2000/svg" viewBox="0 0 330.21 62.5"><defs><style>.cls-1{fill:#666;}.cls-2,.cls-3{fill:none;stroke:#393;stroke-linecap:round;stroke-miterlimit:10;}.cls-2{stroke-width:7.52px;}.cls-3{stroke-width:7.5px;}.cls-4{fill:#6c6;}</style></defs><path class="cls-1" d="M12.25,44.72a21.35,21.35,0,0,1-3.32-.66,11.38,11.38,0,0,1-3.34-1.38,6.74,6.74,0,0,1-2.2-2.4,6.93,6.93,0,0,1-.93-3.65V24.09q0-8.62,13.25-8.63a57.42,57.42,0,0,1,9.06,1v5.15a38.88,38.88,0,0,0-9-1.23c-1.09,0-1.93,0-2.53.09a7.33,7.33,0,0,0-1.87.44A3,3,0,0,0,9.33,24V36.14Q9.33,40,16.41,40A40.76,40.76,0,0,0,25,38.74v5.19a45.5,45.5,0,0,1-9.24,1A29.82,29.82,0,0,1,12.25,44.72Z" transform="translate(-2.46)"/><path class="cls-1" d="M37.58,15.9h8.36L56.23,44.46H49.28l-2.55-7.52H36.3l-2.51,7.52H27Zm7.65,16.46L41.62,21.62h-.17L37.84,32.36Z" transform="translate(-2.46)"/><path class="cls-1" d="M60.06,15.9H72.91c3.81,0,6.57.47,8.27,1.39a4.85,4.85,0,0,1,2.55,4.64v5A4.78,4.78,0,0,1,82,30.89a9.43,9.43,0,0,1-4.73,1.82l8.27,11.75H77.57L70.09,33.24H66.92V44.46H60.06ZM72.82,28.71a6,6,0,0,0,3.3-.64A2.89,2.89,0,0,0,77,25.58v-2a2.37,2.37,0,0,0-1-2.18,6.5,6.5,0,0,0-3.23-.59h-5.9v7.92Z" transform="translate(-2.46)"/><path class="cls-1" d="M163.93,15.91h12.15a32.49,32.49,0,0,1,7.92.76,7.39,7.39,0,0,1,4.26,2.67,8.78,8.78,0,0,1,1.37,5.23V36.19a8.57,8.57,0,0,1-1.28,5,7,7,0,0,1-4.18,2.51,35.07,35.07,0,0,1-8,.72H163.93Zm11.88,23.67a27.85,27.85,0,0,0,4.25-.24,3.58,3.58,0,0,0,2.07-1,3.23,3.23,0,0,0,.63-2.2V24.44a2.92,2.92,0,0,0-1.6-2.84,12.05,12.05,0,0,0-5.13-.81H170.8V39.58Z" transform="translate(-2.46)"/><path class="cls-1" d="M195.83,15.91h6.87V44.46h-6.87Z" transform="translate(-2.46)"/><path class="cls-1" d="M218.76,44.68a22.73,22.73,0,0,1-3.74-.75,10,10,0,0,1-3.26-1.43,6.83,6.83,0,0,1-2.07-2.35,7.57,7.57,0,0,1-.79-3.52V24.75a8.48,8.48,0,0,1,.88-3.9,7.32,7.32,0,0,1,2.37-2.75,15.07,15.07,0,0,1,3.37-1.58,19.19,19.19,0,0,1,3.85-.88,34.65,34.65,0,0,1,3.83-.18,70,70,0,0,1,11.61.93v5.19a49.71,49.71,0,0,0-11.61-1.23q-7.44,0-7.44,4.31V36.14a3.06,3.06,0,0,0,2,3,15.89,15.89,0,0,0,6,.88,18,18,0,0,0,4.63-.66V32.71h-4.67V28.22H235V43.05a30.67,30.67,0,0,1-5.61,1.32,41.42,41.42,0,0,1-6.27.53A37.3,37.3,0,0,1,218.76,44.68Z" transform="translate(-2.46)"/><path class="cls-1" d="M241.19,15.91h6.87V44.46h-6.87Z" transform="translate(-2.46)"/><path class="cls-1" d="M261.48,20.79h-8.8V15.91H277.1v4.88h-8.76V44.46h-6.86Z" transform="translate(-2.46)"/><path class="cls-1" d="M289.29,15.91h8.36l10.29,28.55H301l-2.55-7.52H288l-2.51,7.52h-6.77Zm7.65,16.45-3.61-10.74h-.17l-3.61,10.74Z" transform="translate(-2.46)"/><path class="cls-1" d="M311.77,15.91h6.86V39.58h14v4.88h-20.9Z" transform="translate(-2.46)"/><path class="cls-2" d="M135.37,38.83a15,15,0,1,1-.06-15.26" transform="translate(-2.46)"/><path class="cls-3" d="M98.48,16.91c4.83-8.14,14.35-13.16,24.59-13.16a27.67,27.67,0,0,1,27.83,27.5,27.67,27.67,0,0,1-27.83,27.5c-10.16,0-19.61-4.82-24.47-12.86" transform="translate(-2.46)"/><circle class="cls-4" cx="120.18" cy="31.25" r="7.66"/></svg>